<svg xmlns="http://www.w3.org/2000/svg" xmlns:xlink="http://www.w3.org/1999/xlink" width="1920" zoomAndPan="magnify" viewBox="0 0 1440 809.999993" height="1080" preserveAspectRatio="xMidYMid meet" version="1.2"><defs><clipPath id="c104527a39"><path d="M 1306 487 L 1439.988281 487 L 1439.988281 648 L 1306 648 Z M 1306 487 "/></clipPath><clipPath id="249d5cfbee"><path d="M 1215 492 L 1439.988281 492 L 1439.988281 755 L 1215 755 Z M 1215 492 "/></clipPath><clipPath id="e57885efec"><path d="M 1212 582 L 1439.988281 582 L 1439.988281 810 L 1212 810 Z M 1212 582 "/></clipPath></defs><g id="97c08f96c9"><g clip-rule="nonzero" clip-path="url(#c104527a39)"><path style=" stroke:none;fill-rule:nonzero;fill:#0f3c4c;fill-opacity:1;" d="M 1439.480469 647.222656 L 1439.480469 594.46875 L 1338.386719 493.375 C 1331.128906 486.117188 1319.257812 486.117188 1312.003906 493.375 C 1304.746094 500.628906 1304.746094 512.5 1312.003906 519.757812 Z M 1439.480469 647.222656 "/></g><g clip-rule="nonzero" clip-path="url(#249d5cfbee)"><path style=" stroke:none;fill-rule:nonzero;fill:#045488;fill-opacity:1;" d="M 1432.15625 749.390625 C 1434.480469 751.71875 1437.128906 753.550781 1439.945312 754.90625 L 1439.945312 675.863281 L 1264.949219 500.871094 C 1253.773438 489.691406 1235.484375 489.691406 1224.304688 500.871094 C 1213.128906 512.046875 1213.128906 530.335938 1224.304688 541.515625 Z M 1432.15625 749.390625 "/></g><g clip-rule="nonzero" clip-path="url(#e57885efec)"><path style=" stroke:none;fill-rule:nonzero;fill:#82cdd4;fill-opacity:1;" d="M 1413.5625 809.988281 L 1439.945312 809.988281 L 1439.945312 783.601562 L 1244.058594 587.714844 C 1236.800781 580.457031 1224.929688 580.457031 1217.675781 587.714844 C 1210.417969 594.972656 1210.417969 606.84375 1217.675781 614.097656 Z M 1413.5625 809.988281 "/></g><path style=" stroke:none;fill-rule:nonzero;fill:#0f3c4c;fill-opacity:1;" d="M 1129.617188 636.203125 L 1303.402344 809.988281 L 1383.03125 809.988281 C 1381.753906 807.621094 1380.121094 805.402344 1378.125 803.40625 L 1170.261719 595.542969 C 1159.085938 584.367188 1140.796875 584.367188 1129.617188 595.542969 C 1118.441406 606.734375 1118.441406 625.023438 1129.617188 636.203125 Z M 1129.617188 636.203125 "/><path style=" stroke:none;fill-rule:nonzero;fill:#045488;fill-opacity:1;" d="M 1121.789062 709.984375 L 1221.808594 810 L 1274.5625 810 L 1148.171875 683.613281 C 1140.917969 676.355469 1129.046875 676.355469 1121.789062 683.613281 C 1114.53125 690.855469 1114.53125 702.726562 1121.789062 709.984375 Z M 1121.789062 709.984375 "/><path style=" stroke:none;fill-rule:nonzero;fill:#0f3c4c;fill-opacity:1;" d="M 0.507812 162.777344 L 0.507812 215.53125 L 101.601562 316.625 C 108.859375 323.882812 120.730469 323.882812 127.988281 316.625 C 135.242188 309.371094 135.242188 297.5 127.988281 290.242188 Z M 0.507812 162.777344 "/><path style=" stroke:none;fill-rule:nonzero;fill:#045488;fill-opacity:1;" d="M 7.832031 60.609375 C 5.507812 58.28125 2.863281 56.449219 0.0429688 55.09375 L 0.0429688 134.136719 L 175.039062 309.128906 C 186.214844 320.308594 204.503906 320.308594 215.683594 309.128906 C 226.859375 297.953125 226.859375 279.664062 215.683594 268.484375 Z M 7.832031 60.609375 "/><path style=" stroke:none;fill-rule:nonzero;fill:#82cdd4;fill-opacity:1;" d="M 26.425781 0.0117188 L 0.0429688 0.0117188 L 0.0429688 26.398438 L 195.933594 222.285156 C 203.1875 229.542969 215.058594 229.542969 222.316406 222.285156 C 229.570312 215.027344 229.570312 203.15625 222.316406 195.902344 Z M 26.425781 0.0117188 "/><path style=" stroke:none;fill-rule:nonzero;fill:#0f3c4c;fill-opacity:1;" d="M 310.371094 173.796875 L 136.585938 0.0117188 L 56.957031 0.0117188 C 58.234375 2.378906 59.867188 4.597656 61.863281 6.59375 L 269.726562 214.457031 C 280.902344 225.632812 299.191406 225.632812 310.371094 214.457031 C 321.546875 203.265625 321.546875 184.976562 310.371094 173.796875 Z M 310.371094 173.796875 "/><path style=" stroke:none;fill-rule:nonzero;fill:#045488;fill-opacity:1;" d="M 318.199219 100.015625 L 218.179688 0 L 165.429688 0 L 291.816406 126.386719 C 299.074219 133.644531 310.941406 133.644531 318.199219 126.386719 C 325.457031 119.144531 325.457031 107.273438 318.199219 100.015625 Z M 318.199219 100.015625 "/></g></svg>