<svg version="1.1" id="Layer_1" xmlns="http://www.w3.org/2000/svg" xmlns:xlink="http://www.w3.org/1999/xlink" x="0px" y="0px"
	 width="100%" viewBox="0 0 512 512" enable-background="new 0 0 512 512" xml:space="preserve">
<path fill="#000000" opacity="1.000000" stroke="none" 
	d="
M1.000001,249.466858 
	C6.540227,242.236313 11.998754,235.403671 17.636992,228.722702 
	C31.040485,212.840363 45.388992,197.881836 60.690670,183.785965 
	C71.564369,173.769089 82.775200,164.172501 94.548943,155.290924 
	C103.806534,148.307434 113.335602,141.665710 123.203110,135.483231 
	C143.728500,122.623062 165.231583,111.855026 188.229431,104.322540 
	C207.498550,98.011322 227.258911,94.441795 247.667542,93.451591 
	C275.750336,92.089027 302.767395,96.505791 329.128937,105.552597 
	C350.880798,113.017456 371.380676,123.171043 390.803467,135.559509 
	C412.689667,149.519211 433.020874,165.372604 452.276245,182.803375 
	C467.352814,196.451324 481.302460,211.107361 494.578186,226.407883 
	C500.951172,233.752914 507.726501,240.912643 512.750793,249.774719 
	C513.000000,254.356903 513.000000,258.713806 513.000000,263.535339 
	C504.456360,276.273590 494.557587,287.416260 484.617432,298.555420 
	C478.962616,304.892273 473.079803,310.977783 467.109222,316.996674 
	C453.424347,330.792328 438.843689,343.573547 423.500244,355.490814 
	C402.468323,371.826355 380.120789,386.043915 356.019714,397.443359 
	C332.039673,408.785522 307.084015,416.572968 280.585785,419.538422 
	C240.859482,423.984314 203.097488,417.128418 166.645493,401.344025 
	C136.705475,388.379456 109.638229,370.874023 84.271378,350.488373 
	C67.254387,336.813019 51.208439,322.100739 36.294632,306.215302 
	C24.049519,293.172424 12.165221,279.760376 1.305167,265.127930 
	C1.000000,259.977905 1.000000,254.955811 1.000001,249.466858 
M138.752441,168.337646 
	C119.167152,180.911499 101.094765,195.472992 84.002968,211.181213 
	C69.675034,224.349350 56.464371,238.669250 43.700451,253.378433 
	C41.613964,255.782913 41.323185,257.941162 43.553410,260.383881 
	C49.370789,266.755493 54.962666,273.341461 60.945362,279.552155 
	C81.721962,301.120422 103.787849,321.175446 128.436935,338.370087 
	C149.245636,352.885742 171.124603,365.112183 195.032166,373.747498 
	C220.809967,383.058350 247.150253,387.887024 274.580231,384.600037 
	C299.560974,381.606567 323.124329,373.740295 345.557861,362.600616 
	C372.630829,349.157196 397.118011,331.715424 419.808533,311.893707 
	C437.970032,296.028442 454.602234,278.538879 470.539734,260.417023 
	C472.801270,257.845520 472.263000,255.737289 470.226166,253.454834 
	C464.710785,247.274338 459.461487,240.841248 453.721466,234.879196 
	C437.343323,217.867538 420.164551,201.733215 401.459564,187.237259 
	C375.578979,167.180313 348.008148,150.217575 316.923798,139.380371 
	C298.818176,133.068024 280.245331,129.049271 261.074524,128.425339 
	C243.205475,127.843758 225.775299,130.909241 208.586777,135.702545 
	C193.489563,139.912674 179.160065,146.027878 165.238892,153.050995 
	C156.361145,157.529739 147.940018,162.913635 138.752441,168.337646 
z"/>
<path fill="#000000" opacity="1.000000" stroke="none" 
	d="
M155.646942,245.917282 
	C157.809891,225.079193 165.336349,206.935043 178.599655,191.296387 
	C186.596558,181.867325 195.817505,173.813126 206.773560,167.896042 
	C219.319656,161.120209 232.576660,157.031158 246.859085,155.482147 
	C262.746246,153.759079 277.930939,155.925400 292.713898,161.385712 
	C319.055328,171.115341 338.067749,188.793518 349.841614,214.397949 
	C355.983765,227.755142 359.327972,241.794266 359.179565,256.287354 
	C358.910767,282.537628 350.618652,305.910583 332.655304,325.764862 
	C316.224976,343.924774 295.801331,354.374756 272.117615,358.171021 
	C252.782532,361.270294 233.902283,358.293030 215.734268,350.467865 
	C194.104889,341.151794 177.916016,325.913055 166.900681,305.502167 
	C160.450638,293.550568 156.396210,280.554779 155.460342,266.654266 
	C155.000793,259.828308 154.511826,253.130325 155.646942,245.917282 
M205.254608,298.249695 
	C218.365311,314.054230 235.093369,322.754181 255.677841,323.610535 
	C268.160095,324.129822 279.694244,320.503784 290.303925,314.227753 
	C311.220367,301.854767 322.481903,283.019867 323.423553,259.064758 
	C324.362793,235.171158 314.088043,215.859985 294.311218,202.291687 
	C278.727020,191.599884 261.425323,187.490082 242.700211,192.139984 
	C221.464569,197.413284 206.051056,209.698608 196.591034,229.767761 
	C185.764526,252.735870 189.582031,277.966064 205.254608,298.249695 
z"/>
</svg>